<svg width="191" height="182" xmlns="http://www.w3.org/2000/svg" xmlns:xlink="http://www.w3.org/1999/xlink" overflow="hidden"><g transform="translate(-577 -123)"><rect x="578" y="123" width="190" height="181" fill="#FFFFFF"/><path d="M618 267 765 267 765 126 618 126Z" fill="#FFFFFF" fill-rule="evenodd"/><path d="M645.5 197.498C645.5 204.167 634.5 204.167 634.5 197.498 634.5 190.834 645.5 190.834 645.5 197.498" stroke="#666666" stroke-width="0.944882" stroke-linecap="round" stroke-linejoin="round" stroke-miterlimit="10" stroke-opacity="0.85098" fill="#666666" fill-rule="evenodd" fill-opacity="0.85098"/><path d="M630 182.5C630 189.833 619 189.833 619 182.5 619 175.167 630 175.167 630 182.5" fill="#666666" fill-rule="evenodd" fill-opacity="0.85098"/><path d="M630.5 183C630.5 190.333 619.5 190.333 619.5 183 619.5 175.667 630.5 175.667 630.5 183" stroke="#666666" stroke-width="0.944882" stroke-linecap="round" stroke-linejoin="round" stroke-miterlimit="10" stroke-opacity="0.85098" fill="none" fill-rule="evenodd"/><path d="M762 134.498C762 141.834 751 141.834 751 134.498 751 127.167 762 127.167 762 134.498" fill="#BB5E1B" fill-rule="evenodd" fill-opacity="0.85098"/><path d="M762.5 134.998C762.5 142.334 751.5 142.334 751.5 134.998 751.5 127.667 762.5 127.667 762.5 134.998" stroke="#BB5E1B" stroke-width="0.944882" stroke-linecap="round" stroke-linejoin="round" stroke-miterlimit="10" stroke-opacity="0.85098" fill="none" fill-rule="evenodd"/><path d="M750.5 259.002C750.5 266.333 739.5 266.333 739.5 259.002 739.5 251.666 750.5 251.666 750.5 259.002" stroke="#BB5E1B" stroke-width="0.944882" stroke-linecap="round" stroke-linejoin="round" stroke-miterlimit="10" stroke-opacity="0.85098" fill="#BB5E1B" fill-rule="evenodd" fill-opacity="0.85098"/><path d="M618.5 193.5 765.5 193.5" stroke="#999999" stroke-width="1.42268" stroke-linejoin="round" stroke-miterlimit="10" stroke-dasharray="4.55389 4.55389" fill="none" fill-rule="evenodd"/><path d="M692.5 267.5 692.5 126.5" stroke="#999999" stroke-width="1.42268" stroke-linejoin="round" stroke-miterlimit="10" stroke-dasharray="4.55389 4.55389" fill="none" fill-rule="evenodd"/><path d="M618.5 267.5 765.5 267.5 765.5 126.5 618.5 126.5Z" stroke="#000000" stroke-width="1.42268" stroke-linecap="round" stroke-linejoin="round" stroke-miterlimit="10" fill="none" fill-rule="evenodd"/><path d="M618.5 267.5 618.5 126.5" stroke="#000000" stroke-width="1.42268" stroke-linejoin="round" stroke-miterlimit="10" fill="none" fill-rule="evenodd"/><path d="M610.003 191.975C610.003 194.664 609.153 196.006 607.462 196.006 606.653 196.006 606.038 195.667 605.618 194.978 605.208 194.279 605.003 193.281 605.003 191.975 605.003 190.69 605.208 189.708 605.618 189.034 606.038 188.351 606.673 188.006 607.524 188.006 608.328 188.006 608.943 188.345 609.368 189.014 609.788 189.687 610.003 190.674 610.003 191.975ZM608.938 191.975C608.938 190.731 608.82 189.831 608.589 189.281 608.354 188.736 607.98 188.458 607.462 188.458 606.971 188.458 606.612 188.721 606.397 189.24 606.177 189.764 606.069 190.674 606.069 191.975 606.069 193.281 606.177 194.196 606.397 194.731 606.612 195.266 606.971 195.533 607.462 195.533 607.964 195.533 608.333 195.261 608.569 194.71 608.815 194.15 608.938 193.24 608.938 191.975Z" fill-rule="evenodd"/><path d="M614.5 235.5 618.5 235.5" stroke="#333333" stroke-width="1.42268" stroke-linejoin="round" stroke-miterlimit="10" fill="none" fill-rule="evenodd"/><path d="M614.5 193.5 618.5 193.5" stroke="#333333" stroke-width="1.42268" stroke-linejoin="round" stroke-miterlimit="10" fill="none" fill-rule="evenodd"/><path d="M614.5 151.5 618.5 151.5" stroke="#333333" stroke-width="1.42268" stroke-linejoin="round" stroke-miterlimit="10" fill="none" fill-rule="evenodd"/><path d="M618.5 267.5 765.5 267.5" stroke="#000000" stroke-width="1.42268" stroke-linejoin="round" stroke-miterlimit="10" fill="none" fill-rule="evenodd"/><path d="M641.5 271.5 641.5 267.5" stroke="#333333" stroke-width="1.42268" stroke-linejoin="round" stroke-miterlimit="10" fill="none" fill-rule="evenodd"/><path d="M666.5 271.5 666.5 267.5" stroke="#333333" stroke-width="1.42268" stroke-linejoin="round" stroke-miterlimit="10" fill="none" fill-rule="evenodd"/><path d="M692.5 271.5 692.5 267.5" stroke="#333333" stroke-width="1.42268" stroke-linejoin="round" stroke-miterlimit="10" fill="none" fill-rule="evenodd"/><path d="M717.5 271.5 717.5 267.5" stroke="#333333" stroke-width="1.42268" stroke-linejoin="round" stroke-miterlimit="10" fill="none" fill-rule="evenodd"/><path d="M743.5 271.5 743.5 267.5" stroke="#333333" stroke-width="1.42268" stroke-linejoin="round" stroke-miterlimit="10" fill="none" fill-rule="evenodd"/><path d="M694.01 276.982C694.01 279.671 693.159 281.013 691.469 281.013 690.659 281.013 690.045 280.673 689.625 279.984 689.215 279.285 689.01 278.288 689.01 276.982 689.01 275.696 689.215 274.714 689.625 274.041 690.045 273.357 690.68 273.013 691.53 273.013 692.335 273.013 692.949 273.352 693.375 274.02 693.795 274.694 694.01 275.681 694.01 276.982ZM692.944 276.982C692.944 275.738 692.826 274.838 692.596 274.288 692.36 273.743 691.986 273.465 691.469 273.465 690.977 273.465 690.618 273.727 690.403 274.247 690.183 274.771 690.075 275.681 690.075 276.982 690.075 278.288 690.183 279.203 690.403 279.738 690.618 280.272 690.977 280.54 691.469 280.54 691.971 280.54 692.34 280.267 692.575 279.717 692.821 279.157 692.944 278.247 692.944 276.982Z" fill-rule="evenodd"/><path d="M656.424 291.273C656.424 290.371 656.216 289.732 655.804 289.349 655.387 288.955 654.697 288.758 653.729 288.758L652.938 288.758 652.938 293.963 653.772 293.963C654.67 293.963 655.333 293.755 655.761 293.329 656.2 292.908 656.424 292.225 656.424 291.273ZM652.938 294.707 652.938 298.359 654.649 298.578 654.649 299.015 650.114 299.015 650.114 298.578 651.397 298.359 651.397 288.671 650.007 288.452 650.007 288.015 654.071 288.015C656.692 288.015 658.007 289.097 658.007 291.251 658.007 292.378 657.67 293.236 657.002 293.832 656.344 294.417 655.398 294.707 654.157 294.707Z" fill-rule="evenodd"/><path d="M665.309 299.014C663.634 299.014 662.335 298.541 661.405 297.589 660.47 296.642 660.008 295.312 660.008 293.61 660.008 291.78 660.449 290.392 661.343 289.44 662.247 288.493 663.583 288.014 665.35 288.014 666.419 288.014 667.569 288.158 668.802 288.44L668.843 290.759 668.35 290.759 668.103 289.376C667.744 289.153 667.328 288.972 666.85 288.844 666.383 288.717 665.905 288.653 665.412 288.653 664.081 288.653 663.115 289.057 662.514 289.866 661.908 290.674 661.61 291.924 661.61 293.61 661.61 295.158 661.924 296.344 662.555 297.163 663.198 297.988 664.122 298.398 665.329 298.398 665.915 298.398 666.47 298.328 666.994 298.185 667.513 298.031 667.924 297.834 668.227 297.589L668.514 295.993 669.008 295.993 668.967 298.504C667.826 298.844 666.609 299.014 665.309 299.014Z" fill-rule="evenodd"/><path d="M674.72 298.364 677.009 298.581 677.009 299.015 671.009 299.015 671.009 298.581 673.298 298.364 673.298 289.469 671.031 290.249 671.031 289.816 674.298 288.015 674.72 288.015Z" fill-rule="evenodd"/><path d="M683.471 294.504C683.471 295.897 683.557 297.011 683.735 297.84 683.908 298.668 684.187 299.373 684.568 299.949 684.958 300.519 685.441 300.982 686.009 301.326L686.009 302.015C685.004 301.439 684.222 300.815 683.654 300.142 683.085 299.481 682.664 298.701 682.395 297.797 682.136 296.882 682.009 295.784 682.009 294.504 682.009 293.213 682.136 292.126 682.395 291.233 682.664 290.329 683.075 289.549 683.634 288.887 684.202 288.214 684.994 287.59 686.009 287.015L686.009 287.703C685.385 288.08 684.892 288.559 684.527 289.145 684.161 289.737 683.887 290.426 683.715 291.211 683.552 291.986 683.471 293.084 683.471 294.504Z" fill-rule="evenodd"/><path d="M694.009 295.929C694.009 296.898 693.711 297.653 693.119 298.206 692.537 298.749 691.709 299.014 690.64 299.014 689.741 299.014 688.889 298.892 688.085 298.653L688.009 296.419 688.482 296.419 688.785 297.908C688.974 298.025 689.239 298.121 689.58 298.206 689.921 298.291 690.233 298.334 690.526 298.334 691.269 298.334 691.818 298.142 692.173 297.759 692.523 297.376 692.703 296.738 692.703 295.844 692.703 295.153 692.537 294.621 692.211 294.249 691.88 293.882 691.378 293.685 690.697 293.653L689.675 293.589 689.675 292.929 690.697 292.866C691.227 292.823 691.615 292.632 691.87 292.291 692.135 291.951 692.268 291.44 692.268 290.759 692.268 290.036 692.126 289.514 691.851 289.185 691.572 288.86 691.132 288.695 690.526 288.695 690.271 288.695 690.006 288.738 689.731 288.823 689.466 288.897 689.225 288.993 689.012 289.121L688.766 290.419 688.293 290.419 688.293 288.376C688.757 288.238 689.164 288.142 689.504 288.1 689.845 288.046 690.186 288.014 690.526 288.014 692.556 288.014 693.574 288.897 693.574 290.653 693.574 291.392 693.389 291.983 693.025 292.419 692.67 292.86 692.159 293.137 691.492 293.249 692.362 293.366 692.996 293.642 693.403 294.078 693.806 294.52 694.009 295.137 694.009 295.929Z" fill-rule="evenodd"/><path d="M696.473 290.617 696.01 290.617 696.01 288.015 702.01 288.015 702.01 288.649 697.688 299.015 696.743 299.015 700.987 289.261 696.743 289.261Z" fill-rule="evenodd"/><path d="M706.012 298.004C706.012 298.284 705.912 298.526 705.723 298.729 705.545 298.916 705.306 299.015 705.012 299.015 704.729 299.015 704.49 298.916 704.301 298.729 704.106 298.526 704.012 298.284 704.012 298.004 704.012 297.729 704.106 297.493 704.301 297.301 704.49 297.114 704.729 297.015 705.012 297.015 705.29 297.015 705.529 297.114 705.723 297.301 705.912 297.493 706.012 297.729 706.012 298.004Z" fill-rule="evenodd"/><path d="M714.011 299.015 708.011 299.015 708.011 297.826 709.374 296.443C710.241 295.611 710.879 294.93 711.283 294.412 711.697 293.882 711.99 293.342 712.16 292.791 712.34 292.229 712.433 291.591 712.433 290.867 712.433 290.165 712.287 289.63 712.004 289.268 711.717 288.895 711.249 288.706 710.602 288.706 710.339 288.706 710.076 288.749 709.803 288.836 709.53 288.912 709.287 289.009 709.082 289.139L708.809 290.457 708.342 290.457 708.342 288.382C709.223 288.139 709.978 288.015 710.602 288.015 711.663 288.015 712.462 288.269 712.998 288.771 713.543 289.263 713.816 289.96 713.816 290.867 713.816 291.472 713.704 292.045 713.485 292.575 713.275 293.11 712.949 293.644 712.511 294.174 712.082 294.709 711.361 295.46 710.348 296.421 709.905 296.827 709.443 297.275 708.965 297.761L714.011 297.761Z" fill-rule="evenodd"/><path d="M718.086 298.972 717.18 298.972 725.028 288.014 725.957 288.014ZM720.407 290.928C720.407 292.886 719.501 293.863 717.688 293.863 716.787 293.863 716.118 293.62 715.676 293.124 715.234 292.617 715.013 291.889 715.013 290.928 715.013 288.986 715.919 288.014 717.732 288.014 718.617 288.014 719.28 288.262 719.722 288.753 720.175 289.234 720.407 289.957 720.407 290.928ZM719.125 290.928C719.125 290.126 719.003 289.545 718.771 289.176 718.55 288.796 718.185 288.605 717.688 288.605 717.202 288.605 716.848 288.785 716.627 289.133 716.406 289.487 716.295 290.083 716.295 290.928 716.295 291.788 716.406 292.401 716.627 292.765 716.848 293.118 717.202 293.293 717.688 293.293 718.174 293.293 718.534 293.103 718.771 292.723 719.003 292.343 719.125 291.746 719.125 290.928ZM728.013 296.059C728.013 298.033 727.095 299.014 725.271 299.014 724.387 299.014 723.713 298.772 723.259 298.276 722.817 297.769 722.596 297.03 722.596 296.059 722.596 295.119 722.817 294.401 723.259 293.905 723.713 293.414 724.398 293.166 725.316 293.166 726.2 293.166 726.869 293.414 727.328 293.905 727.781 294.385 728.013 295.103 728.013 296.059ZM726.708 296.059C726.708 295.256 726.587 294.676 726.355 294.306 726.134 293.926 725.769 293.736 725.271 293.736 724.796 293.736 724.453 293.916 724.232 294.264 724.011 294.618 723.901 295.214 723.901 296.059 723.901 296.935 724.011 297.547 724.232 297.895 724.453 298.249 724.796 298.423 725.271 298.423 725.769 298.423 726.134 298.244 726.355 297.874 726.587 297.494 726.708 296.893 726.708 296.059Z" fill-rule="evenodd"/><path d="M729.013 302.015 729.013 301.326C729.581 300.982 730.053 300.519 730.434 299.949 730.81 299.373 731.089 298.668 731.267 297.84 731.454 297.011 731.551 295.897 731.551 294.504 731.551 293.084 731.46 291.986 731.287 291.211 731.124 290.426 730.861 289.737 730.495 289.145 730.13 288.559 729.632 288.08 729.013 287.703L729.013 287.015C730.028 287.59 730.81 288.214 731.368 288.887 731.937 289.549 732.348 290.329 732.607 291.233 732.876 292.126 733.013 293.213 733.013 294.504 733.013 295.784 732.876 296.871 732.607 297.775 732.348 298.679 731.937 299.459 731.368 300.121 730.81 300.793 730.028 301.423 729.013 302.015Z" fill-rule="evenodd"/><path d="M584.26 231.593C583.358 231.593 582.718 231.801 582.335 232.213 581.942 232.63 581.745 233.32 581.745 234.288L581.745 235.079 586.95 235.079 586.95 234.245C586.95 233.347 586.742 232.684 586.315 232.256 585.895 231.817 585.211 231.593 584.26 231.593ZM587.693 235.079 591.345 235.079 591.564 233.368 592.001 233.368 592.001 237.903 591.564 237.903 591.345 236.619 581.657 236.619 581.439 238.01 581.001 238.01 581.001 233.946C581.001 231.325 582.084 230.01 584.238 230.01 585.364 230.01 586.223 230.347 586.819 231.015 587.404 231.673 587.693 232.619 587.693 233.86Z" fill-rule="evenodd"/><path d="M592.001 222.707C592.001 224.382 591.528 225.682 590.576 226.611 589.629 227.546 588.299 228.009 586.597 228.009 584.767 228.009 583.379 227.567 582.427 226.673 581.48 225.769 581.001 224.433 581.001 222.666 581.001 221.598 581.145 220.447 581.427 219.214L583.746 219.173 583.746 219.666 582.363 219.913C582.14 220.272 581.959 220.688 581.831 221.166 581.704 221.634 581.64 222.111 581.64 222.605 581.64 223.935 582.044 224.901 582.852 225.502 583.661 226.108 584.911 226.406 586.597 226.406 588.145 226.406 589.331 226.093 590.15 225.461 590.975 224.819 591.384 223.894 591.384 222.687 591.384 222.101 591.315 221.546 591.172 221.022 591.017 220.503 590.821 220.093 590.576 219.789L588.98 219.502 588.98 219.009 591.491 219.05C591.831 220.19 592.001 221.408 592.001 222.707Z" fill-rule="evenodd"/><path d="M592.002 211.009 592.002 218.009 590.813 218.009 589.43 216.418C588.598 215.406 587.917 214.662 587.398 214.19 586.869 213.708 586.329 213.367 585.778 213.168 585.216 212.957 584.578 212.85 583.854 212.85 583.152 212.85 582.617 213.02 582.255 213.35 581.882 213.685 581.693 214.23 581.693 214.986 581.693 215.293 581.736 215.6 581.823 215.918 581.898 216.236 581.996 216.52 582.125 216.759L583.444 217.077 583.444 217.622 581.369 217.622C581.126 216.594 581.001 215.713 581.001 214.986 581.001 213.747 581.255 212.815 581.758 212.19 582.25 211.554 582.946 211.236 583.854 211.236 584.459 211.236 585.032 211.367 585.561 211.622 586.096 211.867 586.631 212.247 587.161 212.759 587.695 213.259 588.446 214.1 589.408 215.281 589.813 215.798 590.262 216.338 590.748 216.895L590.748 211.009Z" fill-rule="evenodd"/><path d="M587.991 204.545C589.292 204.545 590.331 204.459 591.105 204.281 591.878 204.108 592.536 203.829 593.073 203.448 593.605 203.058 594.037 202.575 594.359 202.007L595.001 202.007C594.464 203.012 593.882 203.794 593.254 204.362 592.636 204.931 591.908 205.352 591.065 205.621 590.211 205.88 589.186 206.007 587.991 206.007 586.786 206.007 585.772 205.88 584.938 205.621 584.095 205.352 583.366 204.941 582.749 204.382 582.121 203.814 581.539 203.022 581.001 202.007L581.644 202.007C581.996 202.631 582.443 203.124 582.99 203.489 583.542 203.854 584.185 204.129 584.918 204.301 585.641 204.464 586.666 204.545 587.991 204.545Z" fill-rule="evenodd"/><path d="M588.916 194.006C589.884 194.006 590.64 194.304 591.193 194.896 591.735 195.478 592.001 196.306 592.001 197.375 592.001 198.274 591.879 199.126 591.64 199.93L589.406 200.006 589.406 199.533 590.895 199.23C591.012 199.041 591.108 198.776 591.193 198.435 591.278 198.094 591.321 197.782 591.321 197.489 591.321 196.746 591.129 196.197 590.746 195.842 590.363 195.492 589.725 195.312 588.831 195.312 588.14 195.312 587.608 195.478 587.235 195.804 586.868 196.135 586.672 196.637 586.64 197.318L586.576 198.34 585.916 198.34 585.852 197.318C585.81 196.788 585.618 196.4 585.278 196.145 584.938 195.88 584.427 195.747 583.746 195.747 583.023 195.747 582.501 195.889 582.172 196.164 581.847 196.443 581.682 196.883 581.682 197.489 581.682 197.744 581.725 198.009 581.81 198.284 581.884 198.549 581.98 198.79 582.108 199.003L583.406 199.249 583.406 199.722 581.363 199.722C581.225 199.258 581.129 198.851 581.087 198.511 581.033 198.17 581.001 197.829 581.001 197.489 581.001 195.459 581.884 194.441 583.64 194.441 584.379 194.441 584.97 194.626 585.406 194.99 585.847 195.345 586.124 195.856 586.235 196.523 586.352 195.653 586.629 195.019 587.065 194.612 587.507 194.209 588.124 194.006 588.916 194.006Z" fill-rule="evenodd"/><path d="M591.351 188.295 591.568 186.006 592.002 186.006 592.002 192.006 591.568 192.006 591.351 189.717 582.455 189.717 583.236 191.984 582.802 191.984 581.001 188.717 581.001 188.295Z" fill-rule="evenodd"/><path d="M590.991 182.006C591.271 182.006 591.513 182.106 591.716 182.295 591.903 182.472 592.002 182.711 592.002 183.006 592.002 183.289 591.903 183.528 591.716 183.717 591.513 183.911 591.271 184.006 590.991 184.006 590.716 184.006 590.479 183.911 590.287 183.717 590.1 183.528 590.001 183.289 590.001 183.006 590.001 182.728 590.1 182.489 590.287 182.295 590.479 182.106 590.716 182.006 590.991 182.006Z" fill-rule="evenodd"/><path d="M583.778 174.349C584.361 174.349 584.854 174.494 585.262 174.778 585.659 175.068 585.961 175.455 586.173 175.938 586.401 175.326 586.756 174.853 587.233 174.52 587.699 174.177 588.271 174.005 588.949 174.005 589.956 174.005 590.719 174.295 591.238 174.864 591.747 175.438 592.001 176.335 592.001 177.548 592.001 179.856 590.984 181.005 588.949 181.005 588.245 181.005 587.667 180.833 587.211 180.49 586.745 180.146 586.401 179.685 586.173 179.094 585.961 179.556 585.659 179.932 585.262 180.232 584.854 180.522 584.361 180.662 583.778 180.662 582.888 180.662 582.204 180.393 581.722 179.846 581.245 179.304 581.001 178.514 581.001 177.484 581.001 176.485 581.245 175.712 581.722 175.165 582.204 174.622 582.888 174.349 583.778 174.349ZM588.949 175.465C588.102 175.465 587.487 175.637 587.105 175.981 586.724 176.313 586.533 176.834 586.533 177.548 586.533 178.267 586.719 178.783 587.084 179.094 587.455 179.395 588.075 179.545 588.949 179.545 589.855 179.545 590.486 179.389 590.836 179.073 591.191 178.761 591.366 178.251 591.366 177.548 591.366 176.834 591.185 176.313 590.815 175.981 590.449 175.637 589.829 175.465 588.949 175.465ZM583.778 175.787C583.047 175.787 582.506 175.938 582.167 176.238 581.817 176.528 581.637 176.958 581.637 177.527 581.637 178.101 581.807 178.53 582.146 178.815 582.474 179.089 583.015 179.223 583.778 179.223 584.514 179.223 585.044 179.089 585.367 178.815 585.68 178.547 585.834 178.117 585.834 177.527 585.834 176.925 585.675 176.491 585.346 176.217 585.023 175.932 584.498 175.787 583.778 175.787Z" fill-rule="evenodd"/><path d="M591.959 169.932 591.959 170.838 581.001 162.989 581.001 162.061ZM583.915 167.61C585.873 167.61 586.85 168.517 586.85 170.329 586.85 171.23 586.607 171.899 586.111 172.341 585.604 172.784 584.876 173.005 583.915 173.005 581.973 173.005 581.001 172.098 581.001 170.285 581.001 169.401 581.25 168.738 581.74 168.295 582.221 167.842 582.944 167.61 583.915 167.61ZM583.915 168.892C583.113 168.892 582.532 169.014 582.163 169.246 581.783 169.467 581.593 169.832 581.593 170.329 581.593 170.816 581.772 171.17 582.12 171.391 582.474 171.612 583.07 171.722 583.915 171.722 584.775 171.722 585.388 171.612 585.752 171.391 586.106 171.17 586.28 170.816 586.28 170.329 586.28 169.843 586.09 169.484 585.71 169.246 585.33 169.014 584.733 168.892 583.915 168.892ZM589.046 160.005C591.02 160.005 592.001 160.922 592.001 162.746 592.001 163.63 591.759 164.305 591.263 164.758 590.756 165.2 590.017 165.421 589.046 165.421 588.106 165.421 587.388 165.2 586.892 164.758 586.401 164.305 586.153 163.619 586.153 162.702 586.153 161.818 586.401 161.149 586.892 160.69 587.372 160.237 588.09 160.005 589.046 160.005ZM589.046 161.309C588.243 161.309 587.663 161.431 587.293 161.663 586.913 161.884 586.723 162.249 586.723 162.746 586.723 163.221 586.903 163.564 587.251 163.785 587.605 164.006 588.201 164.117 589.046 164.117 589.922 164.117 590.534 164.006 590.883 163.785 591.236 163.564 591.41 163.221 591.41 162.746 591.41 162.249 591.231 161.884 590.861 161.663 590.481 161.431 589.88 161.309 589.046 161.309Z" fill-rule="evenodd"/><path d="M595.001 159.003 594.359 159.003C594.037 158.435 593.605 157.963 593.073 157.582 592.536 157.206 591.878 156.927 591.105 156.749 590.331 156.562 589.292 156.465 587.991 156.465 586.666 156.465 585.641 156.557 584.918 156.729 584.185 156.892 583.542 157.156 582.99 157.521 582.443 157.886 581.996 158.384 581.644 159.003L581.001 159.003C581.539 157.988 582.121 157.206 582.749 156.648 583.366 156.079 584.095 155.668 584.938 155.409 585.772 155.14 586.786 155.003 587.991 155.003 589.186 155.003 590.201 155.14 591.044 155.409 591.888 155.668 592.616 156.079 593.234 156.648 593.862 157.206 594.449 157.988 595.001 159.003Z" fill-rule="evenodd"/><path d="M743 178.498C743 185.834 732 185.834 732 178.498 732 171.167 743 171.167 743 178.498" fill="#BB5E1B" fill-rule="evenodd" fill-opacity="0.85098"/><path d="M743.5 178.998C743.5 186.334 732.5 186.334 732.5 178.998 732.5 171.667 743.5 171.667 743.5 178.998" stroke="#BB5E1B" stroke-width="0.944882" stroke-linecap="round" stroke-linejoin="round" stroke-miterlimit="10" stroke-opacity="0.85098" fill="none" fill-rule="evenodd"/></g></svg>